<svg width="434" height="168" viewBox="0 0 434 168" fill="none" xmlns="http://www.w3.org/2000/svg">
<mask id="mask0_30_199" style="mask-type:alpha" maskUnits="userSpaceOnUse" x="0" y="0" width="434" height="168">
<rect width="434" height="168" rx="16" fill="#D9D9D9"/>
</mask>
<g mask="url(#mask0_30_199)">
<line x1="109.5" y1="2.18557e-08" x2="109.5" y2="168" stroke="#E0E0E0"/>
<line x1="218.5" y1="2.18557e-08" x2="218.5" y2="168" stroke="#E0E0E0"/>
<line x1="327.5" y1="2.18557e-08" x2="327.5" y2="168" stroke="#E0E0E0"/>
<path d="M-3 39.5C-3 39.5 66.8019 54.8004 109.5 57.5C153.553 60.2853 172.871 104.564 217 103.5C261.296 102.432 283.691 143.5 328 143.5C371.5 143.5 436 148.5 436 148.5" stroke="url(#paint0_linear_30_199)" stroke-width="4" stroke-linecap="round"/>
<rect x="0.5" y="0.5" width="433" height="167" rx="15.5" stroke="#E0E0E0"/>
<g filter="url(#filter0_d_30_199)">
<circle cx="110" cy="58" r="10" fill="white"/>
<circle cx="110" cy="58" r="7" fill="#EB5757"/>
</g>
<g filter="url(#filter1_d_30_199)">
<circle cx="220" cy="103" r="10" fill="white"/>
<circle cx="220" cy="103" r="7" fill="#F2C94C"/>
</g>
<g filter="url(#filter2_d_30_199)">
<circle cx="328" cy="143" r="10" fill="white"/>
<circle cx="328" cy="143" r="7" fill="#27AE60"/>
</g>
</g>
<defs>
<filter id="filter0_d_30_199" x="96" y="48" width="28" height="28" filterUnits="userSpaceOnUse" color-interpolation-filters="sRGB">
<feFlood flood-opacity="0" result="BackgroundImageFix"/>
<feColorMatrix in="SourceAlpha" type="matrix" values="0 0 0 0 0 0 0 0 0 0 0 0 0 0 0 0 0 0 127 0" result="hardAlpha"/>
<feOffset dy="4"/>
<feGaussianBlur stdDeviation="2"/>
<feComposite in2="hardAlpha" operator="out"/>
<feColorMatrix type="matrix" values="0 0 0 0 0 0 0 0 0 0 0 0 0 0 0 0 0 0 0.25 0"/>
<feBlend mode="normal" in2="BackgroundImageFix" result="effect1_dropShadow_30_199"/>
<feBlend mode="normal" in="SourceGraphic" in2="effect1_dropShadow_30_199" result="shape"/>
</filter>
<filter id="filter1_d_30_199" x="206" y="93" width="28" height="28" filterUnits="userSpaceOnUse" color-interpolation-filters="sRGB">
<feFlood flood-opacity="0" result="BackgroundImageFix"/>
<feColorMatrix in="SourceAlpha" type="matrix" values="0 0 0 0 0 0 0 0 0 0 0 0 0 0 0 0 0 0 127 0" result="hardAlpha"/>
<feOffset dy="4"/>
<feGaussianBlur stdDeviation="2"/>
<feComposite in2="hardAlpha" operator="out"/>
<feColorMatrix type="matrix" values="0 0 0 0 0 0 0 0 0 0 0 0 0 0 0 0 0 0 0.25 0"/>
<feBlend mode="normal" in2="BackgroundImageFix" result="effect1_dropShadow_30_199"/>
<feBlend mode="normal" in="SourceGraphic" in2="effect1_dropShadow_30_199" result="shape"/>
</filter>
<filter id="filter2_d_30_199" x="314" y="133" width="28" height="28" filterUnits="userSpaceOnUse" color-interpolation-filters="sRGB">
<feFlood flood-opacity="0" result="BackgroundImageFix"/>
<feColorMatrix in="SourceAlpha" type="matrix" values="0 0 0 0 0 0 0 0 0 0 0 0 0 0 0 0 0 0 127 0" result="hardAlpha"/>
<feOffset dy="4"/>
<feGaussianBlur stdDeviation="2"/>
<feComposite in2="hardAlpha" operator="out"/>
<feColorMatrix type="matrix" values="0 0 0 0 0 0 0 0 0 0 0 0 0 0 0 0 0 0 0.25 0"/>
<feBlend mode="normal" in2="BackgroundImageFix" result="effect1_dropShadow_30_199"/>
<feBlend mode="normal" in="SourceGraphic" in2="effect1_dropShadow_30_199" result="shape"/>
</filter>
<linearGradient id="paint0_linear_30_199" x1="-3" y1="94" x2="436" y2="94" gradientUnits="userSpaceOnUse">
<stop stop-color="#EB5757"/>
<stop offset="0.515625" stop-color="#F2C94C"/>
<stop offset="1" stop-color="#27AE60"/>
</linearGradient>
</defs>
</svg>
