<svg width="32" height="32" viewBox="0 0 32 32" fill="none" xmlns="http://www.w3.org/2000/svg">
<path d="M3 23V20.1375C3 12.95 8.775 7.025 15.95 7C17.6614 6.99342 19.3572 7.32482 20.9402 7.97518C22.5232 8.62554 23.9623 9.58207 25.1747 10.7899C26.3872 11.9977 27.3492 13.433 28.0057 15.0135C28.6621 16.594 29 18.2886 29 20V23C29 23.2652 28.8946 23.5196 28.7071 23.7071C28.5196 23.8946 28.2652 24 28 24H4C3.73478 24 3.48043 23.8946 3.29289 23.7071C3.10536 23.5196 3 23.2652 3 23Z" stroke="#27AE60" stroke-width="2" stroke-linecap="round" stroke-linejoin="round"/>
<path d="M16 7V11" stroke="#27AE60" stroke-width="2" stroke-linecap="round" stroke-linejoin="round"/>
<path d="M3.4375 16.6375L7.3125 17.675" stroke="#27AE60" stroke-width="2" stroke-linecap="round" stroke-linejoin="round"/>
<path d="M28.5625 16.6375L24.6875 17.675" stroke="#27AE60" stroke-width="2" stroke-linecap="round" stroke-linejoin="round"/>
<path d="M12.9248 24L21.4748 12.8625" stroke="#27AE60" stroke-width="2" stroke-linecap="round" stroke-linejoin="round"/>
</svg>
