<svg width="119" height="32" viewBox="0 0 119 32" fill="none" xmlns="http://www.w3.org/2000/svg">
<path d="M44.72 9.816H52.656V12.2H47.552V14.296H51.28V16.52H47.552V21H44.72V9.816ZM54.5744 9.816H57.4064V21H54.5744V9.816ZM62.552 12.2H59.4V9.816H68.552V12.2H65.384V21H62.552V12.2Z" fill="#27AE60"/>
<path d="M70.5488 9.816H78.4848V12.2H73.3808V14.296H77.1088V16.52H73.3808V21H70.5488V9.816ZM85.6929 21.24C84.5622 21.24 83.5382 20.9947 82.6209 20.504C81.7142 20.0133 80.9942 19.3307 80.4609 18.456C79.9382 17.5707 79.6769 16.5573 79.6769 15.416C79.6769 14.2747 79.9382 13.2613 80.4609 12.376C80.9942 11.4907 81.7142 10.8027 82.6209 10.312C83.5382 9.82133 84.5622 9.576 85.6929 9.576C86.8129 9.576 87.8262 9.82133 88.7329 10.312C89.6502 10.8027 90.3702 11.4907 90.8929 12.376C91.4155 13.2613 91.6769 14.2747 91.6769 15.416C91.6769 16.5573 91.4155 17.5707 90.8929 18.456C90.3702 19.3307 89.6502 20.0133 88.7329 20.504C87.8262 20.9947 86.8129 21.24 85.6929 21.24ZM85.6929 18.584C86.2582 18.584 86.7755 18.456 87.2449 18.2C87.7142 17.944 88.0875 17.576 88.3649 17.096C88.6422 16.616 88.7809 16.056 88.7809 15.416C88.7809 14.776 88.6422 14.2213 88.3649 13.752C88.0982 13.272 87.7302 12.904 87.2609 12.648C86.7915 12.3813 86.2689 12.248 85.6929 12.248C85.1062 12.248 84.5782 12.3813 84.1089 12.648C83.6395 12.904 83.2662 13.272 82.9889 13.752C82.7222 14.2213 82.5889 14.776 82.5889 15.416C82.5889 16.056 82.7222 16.616 82.9889 17.096C83.2662 17.576 83.6395 17.944 84.1089 18.2C84.5889 18.456 85.1169 18.584 85.6929 18.584ZM99.5316 21.24C98.401 21.24 97.377 20.9947 96.4596 20.504C95.553 20.0133 94.833 19.3307 94.2996 18.456C93.777 17.5707 93.5156 16.5573 93.5156 15.416C93.5156 14.2747 93.777 13.2613 94.2996 12.376C94.833 11.4907 95.553 10.8027 96.4596 10.312C97.377 9.82133 98.401 9.576 99.5316 9.576C100.652 9.576 101.665 9.82133 102.572 10.312C103.489 10.8027 104.209 11.4907 104.732 12.376C105.254 13.2613 105.516 14.2747 105.516 15.416C105.516 16.5573 105.254 17.5707 104.732 18.456C104.209 19.3307 103.489 20.0133 102.572 20.504C101.665 20.9947 100.652 21.24 99.5316 21.24ZM99.5316 18.584C100.097 18.584 100.614 18.456 101.084 18.2C101.553 17.944 101.926 17.576 102.204 17.096C102.481 16.616 102.62 16.056 102.62 15.416C102.62 14.776 102.481 14.2213 102.204 13.752C101.937 13.272 101.569 12.904 101.1 12.648C100.63 12.3813 100.108 12.248 99.5316 12.248C98.945 12.248 98.417 12.3813 97.9476 12.648C97.4783 12.904 97.105 13.272 96.8276 13.752C96.561 14.2213 96.4276 14.776 96.4276 15.416C96.4276 16.056 96.561 16.616 96.8276 17.096C97.105 17.576 97.4783 17.944 97.9476 18.2C98.4276 18.456 98.9556 18.584 99.5316 18.584ZM107.753 9.816H111.769C112.995 9.816 114.067 10.04 114.985 10.488C115.902 10.936 116.606 11.5813 117.097 12.424C117.598 13.256 117.849 14.232 117.849 15.352C117.849 17.208 117.305 18.616 116.217 19.576C115.129 20.5253 113.619 21 111.689 21H107.753V9.816ZM111.929 18.616C112.899 18.616 113.641 18.3227 114.153 17.736C114.675 17.1493 114.937 16.3547 114.937 15.352C114.937 14.4347 114.675 13.6827 114.153 13.096C113.641 12.4987 112.931 12.2 112.025 12.2H110.585V18.616H111.929Z" fill="white"/>
<path d="M0 0H20C26.6274 0 32 5.37258 32 12V32H12C5.37258 32 0 26.6274 0 20V0Z" fill="#27AE60"/>
<path d="M6 6H18C22.4183 6 26 9.58172 26 14V26H14C9.58172 26 6 22.4183 6 18V6Z" fill="white"/>
</svg>
