<svg width="28" height="28" viewBox="0 0 28 28" fill="none" xmlns="http://www.w3.org/2000/svg">
<path d="M14 7.00001C14.6188 7.00001 15.2123 7.24584 15.6499 7.68343C16.0875 8.12101 16.3333 8.7145 16.3333 9.33334C16.3333 9.95218 16.0875 10.5457 15.6499 10.9833C15.2123 11.4208 14.6188 11.6667 14 11.6667C13.3811 11.6667 12.7876 11.4208 12.3501 10.9833C11.9125 10.5457 11.6666 9.95218 11.6666 9.33334C11.6666 8.7145 11.9125 8.12101 12.3501 7.68343C12.7876 7.24584 13.3811 7.00001 14 7.00001Z" fill="#27AE60"/>
<path fill-rule="evenodd" clip-rule="evenodd" d="M25.6666 14C25.6666 16.6234 24.8008 19.0445 23.3393 20.9932C21.5957 16.7259 18.068 15.1667 14 15.1667C9.93194 15.1667 6.40424 16.7259 4.66071 20.9932C3.19918 19.0445 2.33331 16.6234 2.33331 14C2.33331 7.55669 7.55666 2.33334 14 2.33334C20.4433 2.33334 25.6666 7.55669 25.6666 14ZM14 14C12.9633 14 11.9622 13.6551 11.1501 13.0287C10.9926 12.9073 10.8423 12.7753 10.7001 12.6332C9.82498 11.758 9.33331 10.571 9.33331 9.33334C9.33331 8.09567 9.82498 6.90868 10.7001 6.03351C11.5753 5.15834 12.7623 4.66668 14 4.66668C15.2377 4.66668 16.4246 5.15834 17.2998 6.03351C18.175 6.90868 18.6666 8.09567 18.6666 9.33334C18.6666 10.571 18.175 11.758 17.2998 12.6332C17.1577 12.7753 17.0073 12.9073 16.8499 13.0287C16.0378 13.6551 15.0367 14 14 14Z" fill="#27AE60"/>
<path d="M19.7329 19.566C20.448 20.3188 21.092 21.3899 21.5376 22.9051C19.5044 24.6278 16.8735 25.6667 14 25.6667C11.1264 25.6667 8.49551 24.6278 6.46235 22.9051C6.908 21.3899 7.55199 20.3188 8.26705 19.566C9.59078 18.1726 11.5116 17.5 14 17.5C16.4884 17.5 18.4092 18.1726 19.7329 19.566Z" fill="#27AE60"/>
</svg>
